<svg width="32" height="32" viewBox="0 0 32 32" fill="none" xmlns="http://www.w3.org/2000/svg">
<path d="M26.2401 9.17335C24.8814 8.45929 23.297 8.30611 21.8267 8.74669C21.7551 7.25131 21.1107 5.84087 20.0271 4.80789C18.9435 3.77492 17.5038 3.19867 16.0067 3.19867C14.5096 3.19867 13.07 3.77492 11.9864 4.80789C10.9028 5.84087 10.2583 7.25131 10.1867 8.74669C8.72044 8.30511 7.14055 8.44352 5.77339 9.13336C4.76659 9.66254 3.93667 10.4748 3.386 11.47C2.83533 12.4653 2.58798 13.5999 2.67446 14.734C2.76094 15.8681 3.17746 16.9521 3.87265 17.8523C4.56785 18.7525 5.51132 19.4296 6.58673 19.8C5.90031 20.7767 5.52819 21.9396 5.52006 23.1334C5.52598 23.4686 5.55718 23.8028 5.61339 24.1334C5.83793 25.4874 6.53646 26.7176 7.58425 27.6042C8.63203 28.4907 9.96085 28.976 11.3334 28.9734C11.6175 28.9928 11.9026 28.9928 12.1867 28.9734C13.7108 28.7333 15.0799 27.9051 16.0001 26.6667C16.9298 27.8851 18.2976 28.6933 19.8134 28.92C20.0975 28.9395 20.3826 28.9395 20.6667 28.92C21.7309 28.9188 22.7744 28.6255 23.6833 28.072C24.5923 27.5186 25.3319 26.7262 25.8215 25.7814C26.3111 24.8365 26.532 23.7753 26.46 22.7136C26.3881 21.6518 26.026 20.6302 25.4134 19.76C26.494 19.396 27.4438 18.7222 28.1444 17.8225C28.845 16.9228 29.2655 15.8369 29.3536 14.7C29.4417 13.5631 29.1935 12.4254 28.6399 11.4285C28.0863 10.4316 27.2517 9.61952 26.2401 9.09336V9.17335ZM13.7867 6.58669C14.3824 6.01623 15.1753 5.69778 16.0001 5.69778C16.8248 5.69778 17.6177 6.01623 18.2134 6.58669C18.6682 7.04214 18.977 7.62271 19.1005 8.25438C19.2239 8.88604 19.1565 9.54017 18.9067 10.1334L18.5601 10.92L17.6801 11.6934C17.139 11.5076 16.572 11.4086 16.0001 11.4C15.2608 11.4007 14.5298 11.5551 13.8534 11.8534L13.1067 10.1334C12.848 9.54279 12.7744 8.88763 12.8958 8.2544C13.0172 7.62117 13.3279 7.03966 13.7867 6.58669V6.58669ZM5.65339 15.7067C5.35574 15.0517 5.29049 14.3148 5.46844 13.6177C5.64639 12.9206 6.05689 12.3051 6.63207 11.8729C7.20725 11.4408 7.91268 11.2178 8.63175 11.2409C9.35082 11.264 10.0405 11.5318 10.5867 12L11.2401 12.5734L11.7067 13.64C11.0388 14.5337 10.6743 15.6177 10.6667 16.7334C10.6509 16.933 10.6509 17.1337 10.6667 17.3334H9.93339L8.81339 17.44C8.17279 17.5076 7.52682 17.3778 6.96205 17.068C6.39727 16.7582 5.94066 16.2832 5.65339 15.7067V15.7067ZM14.4534 23.8134C14.2929 24.5251 13.892 25.1599 13.3182 25.6106C12.7445 26.0614 12.0329 26.3007 11.3033 26.2881C10.5738 26.2756 9.87083 26.0121 9.31287 25.5419C8.75492 25.0717 8.37604 24.4236 8.24006 23.7067C8.22727 23.5202 8.22727 23.3331 8.24006 23.1467C8.24489 22.6047 8.39141 22.0735 8.66508 21.6057C8.93874 21.1379 9.33002 20.7498 9.80006 20.48L10.4801 20L11.6934 19.8667C12.4581 20.9306 13.5877 21.6757 14.8667 21.96L14.4534 23.8134ZM16.0001 19.4C15.4726 19.4 14.9571 19.2436 14.5185 18.9506C14.08 18.6576 13.7382 18.2411 13.5364 17.7538C13.3345 17.2666 13.2817 16.7304 13.3846 16.2131C13.4875 15.6958 13.7415 15.2207 14.1144 14.8477C14.4874 14.4748 14.9625 14.2208 15.4798 14.1179C15.9971 14.015 16.5333 14.0678 17.0205 14.2697C17.5078 14.4715 17.9243 14.8133 18.2173 15.2518C18.5103 15.6904 18.6667 16.2059 18.6667 16.7334C18.6667 17.4406 18.3858 18.1189 17.8857 18.619C17.3856 19.1191 16.7073 19.4 16.0001 19.4ZM23.7601 23.6934C23.6225 24.5069 23.1709 25.2339 22.5025 25.7177C21.8342 26.2015 21.0025 26.4034 20.1867 26.28C19.5439 26.1894 18.9441 25.9047 18.4675 25.4639C17.9909 25.023 17.6604 24.4472 17.5201 23.8134L17.3334 23.0134L17.6134 21.7867C18.8434 21.3861 19.8859 20.5521 20.5467 19.44L21.2134 19.84H21.3334L22.2134 20.36C22.7851 20.6865 23.2412 21.1828 23.5183 21.78C23.7954 22.3773 23.8799 23.0459 23.7601 23.6934V23.6934ZM26.3467 15.6934C26.0845 16.2233 25.6799 16.6699 25.1784 16.9831C24.6768 17.2962 24.098 17.4637 23.5067 17.4667H23.1867L22.3334 17.3334L21.3334 16.7867C21.3315 15.4903 20.8575 14.239 20.0001 13.2667L20.5734 12.7734L21.4134 12C21.9612 11.513 22.6613 11.2316 23.3937 11.2039C24.1262 11.1763 24.8455 11.4041 25.4285 11.8484C26.0114 12.2927 26.4218 12.9259 26.5893 13.6395C26.7568 14.3531 26.6711 15.1027 26.3467 15.76V15.6934Z" fill="#1e3a8a"/>
</svg>