<svg width="30" height="32" viewBox="0 0 30 32" fill="none" xmlns="http://www.w3.org/2000/svg">
<path d="M25 10.6667L17.5 3.65334C16.8125 2.9974 15.9224 2.63477 15 2.63477C14.0776 2.63477 13.1875 2.9974 12.5 3.65334L5 10.6667C4.60296 11.0454 4.28612 11.5101 4.07059 12.0297C3.85505 12.5493 3.74576 13.1119 3.75 13.68V25.3333C3.75 26.3942 4.14508 27.4116 4.84835 28.1618C5.55161 28.9119 6.50543 29.3333 7.5 29.3333H22.5C23.4946 29.3333 24.4484 28.9119 25.1516 28.1618C25.8549 27.4116 26.25 26.3942 26.25 25.3333V13.6667C26.2525 13.1008 26.1423 12.5407 25.9268 12.0236C25.7114 11.5064 25.3955 11.0439 25 10.6667V10.6667ZM17.5 26.6667H12.5V20C12.5 19.6464 12.6317 19.3072 12.8661 19.0572C13.1005 18.8072 13.4185 18.6667 13.75 18.6667H16.25C16.5815 18.6667 16.8995 18.8072 17.1339 19.0572C17.3683 19.3072 17.5 19.6464 17.5 20V26.6667ZM23.75 25.3333C23.75 25.687 23.6183 26.0261 23.3839 26.2761C23.1495 26.5262 22.8315 26.6667 22.5 26.6667H20V20C20 18.9391 19.6049 17.9217 18.9016 17.1716C18.1984 16.4214 17.2446 16 16.25 16H13.75C12.7554 16 11.8016 16.4214 11.0983 17.1716C10.3951 17.9217 10 18.9391 10 20V26.6667H7.5C7.16848 26.6667 6.85053 26.5262 6.61611 26.2761C6.38169 26.0261 6.25 25.687 6.25 25.3333V13.6667C6.25022 13.4774 6.28824 13.2903 6.36152 13.1178C6.4348 12.9454 6.54166 12.7916 6.675 12.6667L14.175 5.66667C14.4031 5.45292 14.6964 5.33503 15 5.33503C15.3036 5.33503 15.5969 5.45292 15.825 5.66667L23.325 12.6667C23.4583 12.7916 23.5652 12.9454 23.6385 13.1178C23.7118 13.2903 23.7498 13.4774 23.75 13.6667V25.3333Z" fill="#1e3a8a"/>
</svg>