<svg width="30" height="32" viewBox="0 0 30 32" fill="none" xmlns="http://www.w3.org/2000/svg">
<path d="M23.7396 28.0027H22.4896V25.78C22.4857 25.017 22.3591 24.2603 22.1152 23.543C22.1015 23.5039 22.0872 23.4676 22.0703 23.4303C21.8679 22.8415 21.5882 22.2863 21.2396 21.7813L19.4897 19.2917C19.0042 18.5982 18.7412 17.7562 18.7396 16.8907V15.5443C18.7425 14.4842 19.137 13.468 19.8376 12.7161L20.6592 11.8398C21.6137 10.8162 22.2269 9.48663 22.4046 8.05533C22.4052 8.03679 22.4146 8.02132 22.4146 8.0026L22.411 7.98429C22.4545 7.7004 22.4808 7.41381 22.4896 7.1263V4.00267H23.7396C24.0712 4.00267 24.3891 3.86219 24.6235 3.61214C24.8579 3.36209 24.9896 3.02295 24.9896 2.66933C24.9896 2.31571 24.8579 1.97657 24.6235 1.72652C24.3891 1.47647 24.0712 1.336 23.7396 1.336H6.23964C5.90812 1.336 5.59017 1.47647 5.35575 1.72652C5.12133 1.97657 4.98964 2.31571 4.98964 2.66933C4.98964 3.02295 5.12133 3.36209 5.35575 3.61214C5.59017 3.86219 5.90812 4.00267 6.23964 4.00267H7.48964V7.1263C7.49852 7.41381 7.52477 7.7004 7.56822 7.98429L7.5647 8.00266C7.5647 8.02133 7.574 8.03685 7.5747 8.0554C7.7524 9.48669 8.36556 10.8162 9.32007 11.8399L10.1416 12.7162C10.8422 13.4681 11.2368 14.4842 11.2396 15.5443V16.8907C11.238 17.7561 10.9752 18.598 10.4901 19.2917L8.73901 21.7813C8.39057 22.2865 8.11097 22.8419 7.90855 23.4308C7.89192 23.4678 7.87765 23.5037 7.86415 23.5424C7.62022 24.2599 7.49354 25.0168 7.48962 25.78V28.0027H6.23962C5.9081 28.0027 5.59016 28.1431 5.35574 28.3932C5.12132 28.6432 4.98962 28.9824 4.98962 29.336C4.98962 29.6896 5.12132 30.0288 5.35574 30.2788C5.59016 30.5289 5.9081 30.6693 6.23962 30.6693H23.7396C24.0711 30.6693 24.3891 30.5289 24.6235 30.2788C24.8579 30.0288 24.9896 29.6896 24.9896 29.336C24.9896 28.9824 24.8579 28.6432 24.6235 28.3932C24.3891 28.1431 24.0711 28.0027 23.7396 28.0027V28.0027ZM9.98962 6.66933V4.00267H19.9896V6.66933H9.98962ZM11.0876 9.95449C10.9115 9.76575 10.7537 9.55853 10.6165 9.336H19.3627C19.2256 9.55853 19.0677 9.76574 18.8916 9.95449L18.0701 10.8308C17.095 11.8647 16.4698 13.215 16.2927 14.6693H13.6865C13.5094 13.215 12.8842 11.8646 11.9092 10.8307L11.0876 9.95449ZM12.4902 20.8907C13.2135 19.8569 13.6424 18.6228 13.7256 17.336H16.2537C16.3368 18.623 16.7659 19.8571 17.4896 20.8907L18.7398 22.6693H11.2392L12.4902 20.8907ZM19.9896 28.0027H9.98962V25.78C9.9931 25.6314 10.0045 25.4832 10.0236 25.336H19.9556C19.9748 25.4832 19.9861 25.6314 19.9896 25.78V28.0027Z" fill="#1e3a8a"/>
</svg>