<svg fill="none" height="24" viewBox="0 0 24 24" width="24" xmlns="http://www.w3.org/2000/svg"><g fill="#292d32"><path d="m22 22.75h-20c-.41 0-.75-.34-.75-.75s.34-.75.75-.75h20c.41 0 .75.34.75.75s-.34.75-.75.75z"/><path d="m3.7002 21.9997h-1.5l.05-12.02999c0-.85.39-1.63997 1.06-2.15997l7-5.45001c.99-.77 2.38-.77 3.38 0l7 5.44c.66.52 1.06 1.32998 1.06 2.16998v12.02999h-1.5v-12.01998c0-.38-.18-.74999-.48-.98999l-7-5.44c-.45-.35-1.08-.35-1.54 0l-7 5.45001c-.3.23-.48.59998-.48.97998z"/><path d="m17 22.75h-10c-.41 0-.75-.34-.75-.75v-9.5c0-1.24 1.01-2.25 2.25-2.25h7c1.24 0 2.25 1.01 2.25 2.25v9.5c0 .41-.34.75-.75.75zm-9.25-1.5h8.5v-8.75c0-.41-.34-.75-.75-.75h-7c-.41 0-.75.34-.75.75z"/><path d="m10 18.5c-.41 0-.75-.34-.75-.75v-1.5c0-.41.34-.75.75-.75s.75.34.75.75v1.5c0 .41-.34.75-.75.75z"/><path d="m13.5 8.25h-3c-.41 0-.75-.34-.75-.75s.34-.75.75-.75h3c.41 0 .75.34.75.75s-.34.75-.75.75z"/></g></svg>