<?xml version="1.0" encoding="utf-8"?>
<svg fill="none" height="24" viewBox="0 0 24 24" width="24" xmlns="http://www.w3.org/2000/svg">
  <defs/>
  <g fill="#292d32">
    <path d="M 22 22.75 L 1.771 22.75 C 1.361 22.75 1.084 22.694 1.123 22.352 C 1.162 22.01 1.425 22.041 1.822 22.018 L 22.055 22 C 22.463 22.002 22.56 22.053 22.578 22.338 C 22.596 22.623 22.37 22.74 22 22.75 Z"/>
    <path d="M 3.731 22.154 L 2.917 22.227 L 2.928 10.095 C 2.928 9.245 2.958 8.845 3.628 8.325 L 10.999 2.617 C 11.989 1.847 12.198 1.904 13.198 2.674 L 20.367 8.327 C 21.027 8.847 21.068 9.41 21.068 10.25 L 21.063 22.168 L 20.25 22 L 20.25 9.98 C 20.25 9.6 20.12 9.15 19.82 8.91 L 12.843 3.311 C 12.377 2.86 11.686 2.897 11.2 3.35 L 4.14 8.9 C 3.84 9.13 3.75 9.6 3.75 9.98 L 3.731 22.154 Z"/>
    <path d="M 17 22.75 L 7 22.75 C 6.59 22.75 6.532 22.41 6.532 22 L 6.569 12.559 C 6.569 11.319 7.26 10.25 8.5 10.25 L 15.84 10.26 C 16.997 10.332 17.544 11.336 17.631 12.5 L 17.628 22.056 C 17.628 22.466 17.41 22.75 17 22.75 Z M 7.244 22.101 L 17.008 22.075 L 17.014 12.475 C 17.065 11.466 16.14 10.768 15.855 10.829 L 8.438 10.862 C 7.467 10.757 7.272 12.094 7.285 12.532 L 7.244 22.101 Z"/>
    <path d="M 9.874 18.428 C 9.464 18.428 9.513 18.235 9.513 17.825 L 9.514 16.206 C 9.518 15.815 9.513 15.611 9.885 15.599 C 10.257 15.587 10.197 15.856 10.218 16.231 L 10.212 17.783 C 10.18 18.129 10.284 18.428 9.874 18.428 Z"/>
    <path d="M 13.679 7.486 L 10.536 7.486 C 10.106 7.486 9.946 7.441 9.939 7.138 C 9.932 6.835 10.106 6.75 10.536 6.75 L 13.679 6.75 C 14.108 6.75 14.19 6.849 14.19 7.108 C 14.19 7.367 14.108 7.486 13.679 7.486 Z" style=""/>
  </g>
</svg>