<svg fill="none" height="24" viewBox="0 0 24 24" width="24" xmlns="http://www.w3.org/2000/svg"><g stroke="#C3DAFE" stroke-linecap="round" stroke-width="1.5"><g stroke-linejoin="round"><path d="m2 15h13c.9319 0 1.3978 0 1.7654.1522.49.203.8794.5924 1.0824 1.0824.1522.3676.1522.8335.1522 1.7654s0 1.3978-.1522 1.7654c-.203.49-.5924.8794-1.0824 1.0824-.3676.1522-.8335.1522-1.7654.1522h-13"/><path d="m2 3h13c.9319 0 1.3978 0 1.7654.15224.49.20299.8794.59234 1.0824 1.08239.1522.36755.1522.83349.1522 1.76537s0 1.39782-.1522 1.76537c-.203.49005-.5924.8794-1.0824 1.08239-.3676.15224-.8335.15224-1.7654.15224h-13"/><path d="m22 9h-13c-.93188 0-1.39782 0-1.76537.15224-.49005.20299-.8794.59234-1.08239 1.08236-.15224.3676-.15224.8335-.15224 1.7654s0 1.3978.15224 1.7654c.20299.49.59234.8794 1.08239 1.0824.36755.1522.83349.1522 1.76537.1522h13"/></g><path d="m21 15c-1.1046 0-2-1.3431-2-3s.8954-3 2-3"/><path d="m3 3c1.10457 0 2 1.34315 2 3s-.89543 3-2 3"/><path d="m3 15c1.10457 0 2 1.3431 2 3s-.89543 3-2 3"/></g></svg>