<svg fill="none" height="24" viewBox="0 0 24 24" width="24" xmlns="http://www.w3.org/2000/svg"><g stroke="#1E3A8A" stroke-linecap="round" stroke-width="1.5"><path d="m2 7h2.86503c.72671 0 1.42365-.35969 1.93752-.99995.73388-.9144 1.8194-1.23369 2.804-.82476l1.39345.57873m-9 10.21278h1.62068c1.15949 0 1.73923 0 2.28744.1545.02665.0075.05322.0153.0797.0233.54477.1655 1.02714.4763 1.99189 1.0981 1.88816 1.2169 2.83229 1.8254 3.86099 1.7513.0485-.0035.0969-.0082.1452-.0139 1.0237-.1224 1.826-.898 3.4307-2.4493l1.5834-1.5308"/><path d="m22 7.23384h-2.5168c-1.0658 0-1.8183-.57916-2.5829-1.35126-.4952-.50011-1.1272-.79486-1.7915-.83545-.7428-.04538-1.6035-.10928-2.3248.08888-.8029.22055-1.333.82462-1.8938 1.45595l-1.44711 1.62915c-.59079.6651-.59079 1.74344 0 2.40859.50991.574 1.30881.6631 1.90881.2127.4318-.324.9224-.84734 1.4312-1.01215.5726-.18549.9278.23125 1.2523.66965l2.3202 3.1345c.8611 1.1632 1.2916 1.7449 1.8802 2.0552.5886.3104 1.2611.3104 2.6062.3104h1.158"/></g></svg>