<svg fill="none" height="24" viewBox="0 0 24 24" width="24" xmlns="http://www.w3.org/2000/svg"><g stroke="#1E3A8A" stroke-linecap="round" stroke-width="1.5"><path d="m11.9261 10.9709c-.0002.8004.5128 2.0949 1.6089 3 1.6474 1.3603 2.4711 2.0405 2.6355 2.2916.1881.2874.1491.203.2481.5356.0865.2907.0865.7072.0865 1.5403v.0796c0 .1965 0 .2948.0171.3881.0248.1356.0761.2643.1508.3781.0513.0782.1181.1473.2517.2855.6592.6821.9887 1.0231 1.0509 1.3061.0908.4132-.0772.8415-.4192 1.0687-.2341.1555-.6975.1555-1.6242.1555h-7.38798c-.96146 0-1.4422 0-1.68157-.1655-.32889-.2274-.4906-.643-.40713-1.0463.06075-.2935.4046-.6453 1.09228-1.3489.13937-.1426.20905-.2139.26222-.2952.07295-.1115.12355-.2374.14874-.3699.01837-.0967.01837-.1987.01837-.4027v-2.6556c0-.7118.01974-.6792-.46425-1.3377-2.81279-3.8273-1.33984-7.54404 1.4515-8.9814 0-1.74517.94863-2.68392 1.85962-3.15162.4218-.21655.6327-.32482.8674-.17731.55.34563.5162 1.93213.2347 2.93213 1.2079 0 2.1915 1 2.1915 2l1.871 1.88892c.3445.40996.6852.84003.4244 1.41188-.1682.3688-.5699.693-.8614.9632-.3766.3492-.9518.3492-1.3284 0-.3419-.3169-.5946-.5816-1.0892-.4853-.4027.0784-.7936.2154-1.2079.1922zm0 0c-.5546-.031-1.2095-.288-1.905-.9709" stroke-linejoin="round"/><path d="m8 19h8"/></g></svg>