<svg fill="none" height="24" viewBox="0 0 24 24" width="24" xmlns="http://www.w3.org/2000/svg"><g stroke="#C3DAFE" stroke-width="1.5"><path d="m3.78879 9.03708c-.70739.38292-2.56211 1.16482-1.43246 2.14322.55182.4779 1.16642.8197 1.9391.8197h4.40914c.77268 0 1.38723-.3418 1.93913-.8197 1.1296-.9784-.7251-1.7603-1.43249-2.14322-1.6588-.89793-3.76362-.89793-5.42242 0z"/><path d="m8.75 4.27273c0 1.25519-1.00736 2.27272-2.25 2.27272s-2.25-1.01753-2.25-2.27272c0-1.2552 1.00736-2.27273 2.25-2.27273s2.25 1.01753 2.25 2.27273z"/><path d="m4 15c0 3.3171 2.68286 6 6 6l-.85714-1.7143" stroke-linecap="round" stroke-linejoin="round"/><path d="m20 9c0-3.31714-2.6829-6-6-6l.8571 1.71429" stroke-linecap="round" stroke-linejoin="round"/><path d="m14.7888 19.0371c-.7074.3829-2.5621 1.1648-1.4325 2.1432.5519.4779 1.1664.8197 1.9391.8197h4.4092c.7727 0 1.3872-.3418 1.9391-.8197 1.1296-.9784-.7251-1.7603-1.4325-2.1432-1.6588-.8979-3.7636-.8979-5.4224 0z"/><path d="m19.75 14.2727c0 1.2552-1.0074 2.2728-2.25 2.2728s-2.25-1.0176-2.25-2.2728 1.0074-2.2727 2.25-2.2727 2.25 1.0175 2.25 2.2727z"/></g></svg>