<svg fill="none" height="24" viewBox="0 0 24 24" width="24" xmlns="http://www.w3.org/2000/svg"><g stroke="#1E3A8A" stroke-width="1.5"><path d="m10.0808 2c-4.61057.9359-8.0808 5.01218-8.0808 9.899 0 5.5786 4.52238 10.101 10.101 10.101 4.8868 0 8.9631-3.4702 9.899-8.0808" stroke-linecap="round"/><path d="m18.9375 18c.3841-.0834.7396-.216 1.0625-.397m-5.3125-.2624c.5956.2609 1.1701.4542 1.7176.5812m-5.5505-2.9741c.4135.2903.8554.6384 1.2857.9388m-9.1403-2.0615c.32234-.1575.67031-.3382 1.0625-.4929m2.38855-.3321c.56188.0624 1.19196.2226 1.90638.5232" stroke-linecap="round" stroke-linejoin="round"/><path d="m18 7.5c0-.82843-.6716-1.5-1.5-1.5s-1.5.67157-1.5 1.5.6716 1.5 1.5 1.5 1.5-.67157 1.5-1.5z"/><path d="m17.488 13.6202c-.265.2436-.6193.3798-.9879.3798s-.7228-.1362-.9878-.3798c-2.4268-2.2446-5.67894-4.75205-4.093-8.3924.8576-1.96831 2.916-3.2278 5.0808-3.2278s4.2233 1.25949 5.0808 3.2278c1.584 3.63576-1.6602 6.1555-4.0929 8.3924z"/></g></svg>