<svg fill="none" height="24" viewBox="0 0 24 24" width="24" xmlns="http://www.w3.org/2000/svg"><g stroke="#C3DAFE" stroke-width="1.5"><path d="m13 22h-6.40913c-1.54538 0-2.77456-.752-3.87821-1.8034-2.259295-2.1525 1.45014-3.8726 2.86491-4.715 1.95301-1.1629 4.21513-1.6412 6.42243-1.435" stroke-linecap="round" stroke-linejoin="round"/><path d="m15.5 6.5c0 2.48528-2.0147 4.5-4.5 4.5-2.48528 0-4.5-2.01472-4.5-4.5s2.01472-4.5 4.5-4.5c2.4853 0 4.5 2.01472 4.5 4.5z"/><path d="m15.015 15.3866c1.0726-.6397 2.0088-.3819 2.5713.0287.2306.1684.3459.2526.4137.2526s.1831-.0842.4137-.2526c.5625-.4106 1.4987-.6684 2.5713-.0287 1.4078.8395 1.7263 3.6092-1.5208 5.9458-.6185.4451-.9277.6676-1.4642.6676s-.8457-.2225-1.4642-.6676c-3.2471-2.3366-2.9286-5.1063-1.5208-5.9458z" stroke-linecap="round"/></g></svg>