<svg version="1.2" xmlns="http://www.w3.org/2000/svg" viewBox="0 0 2250 2250" width="2250" height="2250">
	<title>Favicon Denly</title>
	<style>
		tspan { white-space:pre } 
		.s0 { fill: none;stroke: #e2b13a;stroke-linecap: round;stroke-linejoin: round;stroke-width: 150 } 
	</style><linearGradient id="grad-ucgg-generated" gradientUnits="userSpaceOnUse" 
   x1="0%" y1="0%" x2="100%" y2="0%" gradientTransform="rotate(65)">
    <stop offset="0%" stop-color="#083146" stop-opacity="1"/>
    <stop offset="100%" stop-color="#042130" stop-opacity="1"/>
  </linearGradient>
  <rect x="0" y="0" width="2250" height="2250" rx="400" ry="400" fill="url(#grad-ucgg-generated)" />
	<g id="Den">
		<path id="Shape 2" class="s0" d="m1020 1680v-380c0 0 20-160 200-160 180 0 200 160 200 160v380"/>
		<path id="Layer 3 copy" class="s0" d="m118.7 1669.5c0 0 160.1-424.5 325.4-631.5 79.5-99.6 257-111.2 440.2-161.1 71.2-19.5 114.8-18.8 197.6-115.4 61.1-71.3 108.9-135.4 200.2-154.1 97.5-20.1 211.6 80 256.6 119.9 61.1 54.3 153.8 138.9 179.3 205.9 51.2 134.6 22.3 215.5 61.9 306.2 101.3 231.6 233.2 357.2 334.3 460.5"/>
	</g>
</svg>